<?xml version="1.0" standalone="no"?>
<!DOCTYPE svg PUBLIC "-//W3C//DTD SVG 20010904//EN"
 "http://www.w3.org/TR/2001/REC-SVG-20010904/DTD/svg10.dtd">
<svg version="1.0" xmlns="http://www.w3.org/2000/svg"
 width="684.000000pt" height="684.000000pt" viewBox="0 0 684.000000 684.000000"
 preserveAspectRatio="xMidYMid meet">
<metadata>
Created by potrace 1.11, written by Peter Selinger 2001-2013
</metadata>
<g transform="translate(0.000000,684.000000) scale(0.100000,-0.100000)"
fill="#000000" stroke="none">
<path d="M3150 6829 c-575 -47 -1138 -242 -1615 -560 -403 -270 -694 -561
-964 -964 -558 -837 -715 -1877 -430 -2851 116 -399 350 -847 613 -1173 506
-629 1221 -1063 2006 -1216 250 -48 366 -59 660 -59 294 0 410 11 660 59 1356
265 2430 1339 2695 2695 48 250 59 366 59 660 0 294 -11 410 -59 660 -200
1023 -869 1909 -1800 2382 -577 292 -1198 417 -1825 367z m715 -319 c315 -48
583 -127 860 -254 43 -20 80 -38 82 -40 2 -1 -28 -97 -66 -212 -297 -895 -514
-1727 -588 -2249 -27 -193 -24 -530 5 -725 83 -540 289 -1326 574 -2189 42
-128 66 -217 61 -222 -17 -17 -260 -118 -384 -159 -353 -118 -691 -167 -1079
-157 -478 13 -903 121 -1331 338 -436 222 -839 571 -1125 974 -136 192 -284
466 -368 682 -307 791 -271 1704 98 2468 472 978 1398 1638 2471 1759 193 22
605 15 790 -14z m1752 -2229 c26 -12 52 -35 70 -62 l28 -42 3 -223 4 -222 222
-4 223 -3 42 -28 c72 -48 81 -80 81 -299 0 -199 -5 -225 -48 -271 -52 -55 -63
-57 -301 -57 l-219 0 -4 -222 c-3 -242 -7 -258 -65 -312 -39 -36 -95 -46 -270
-46 -173 0 -217 8 -263 47 -58 48 -60 61 -60 308 l0 225 -225 0 c-247 0 -260
2 -308 60 -39 46 -47 90 -47 269 0 186 9 229 57 276 48 47 95 55 322 55 l201
0 0 222 c0 217 0 222 25 263 16 28 39 50 67 64 39 19 59 21 233 21 165 0 196
-3 232 -19z"/>
<path d="M1592 5304 c-244 -65 -390 -315 -327 -559 59 -225 287 -376 512 -338
198 34 352 189 385 387 29 177 -67 372 -232 469 -93 54 -229 71 -338 41z"/>
<path d="M3330 5054 c-76 -65 -247 -179 -375 -251 -49 -28 -288 -150 -530
-271 -696 -350 -910 -482 -1144 -707 -364 -349 -474 -719 -359 -1208 11 -49
23 -85 27 -80 5 4 14 35 21 68 20 94 86 278 136 378 70 139 147 249 253 359
163 171 346 295 656 447 88 43 239 117 335 165 96 47 218 111 270 142 355 213
571 458 709 806 25 63 72 208 68 208 -1 0 -31 -25 -67 -56z"/>
<path d="M3940 4744 c-25 -25 -99 -91 -165 -147 -305 -257 -704 -520 -1160
-767 -483 -261 -663 -383 -889 -600 -376 -361 -567 -810 -506 -1188 60 -370
389 -662 850 -756 79 -16 300 -40 307 -33 2 3 -52 23 -119 46 -407 139 -649
339 -724 596 -23 82 -21 227 5 327 78 300 370 643 744 875 122 75 240 130 427
198 462 169 727 360 932 669 122 184 201 356 286 616 49 153 65 210 59 210 -1
0 -23 -21 -47 -46z"/>
<path d="M1883 2614 c-76 -77 -124 -142 -155 -210 l-20 -46 47 -96 c192 -398
513 -639 971 -731 93 -18 305 -44 311 -37 2 2 -27 13 -64 25 -282 92 -555 318
-759 627 -75 115 -161 285 -209 416 -21 56 -42 107 -46 112 -4 4 -38 -23 -76
-60z"/>
</g>
</svg>
